<svg xmlns="http://www.w3.org/2000/svg" viewBox="0 0 300 200">
  <rect width="300" height="200" fill="#f5f5f5"/>
  <text x="150" y="30" text-anchor="middle" font-family="Segoe UI, sans-serif" font-size="14" font-weight="bold" fill="#333">BPF Viewer v2</text>

  <!-- Sample BPF row -->
  <rect x="20" y="50" width="260" height="60" rx="4" fill="white" stroke="#e0e0e0"/>
  <text x="30" y="70" font-family="Segoe UI, sans-serif" font-size="10" fill="#333">Contoso Ltd - Enterprise License</text>

  <!-- Chevron stages -->
  <polygon points="30,85 80,85 90,95 80,105 30,105" fill="#107C10"/>
  <polygon points="85,85 135,85 145,95 135,105 85,105 95,95" fill="#107C10"/>
  <polygon points="140,85 190,85 200,95 190,105 140,105 150,95" fill="#0078D4"/>
  <polygon points="195,85 245,85 255,95 245,105 195,105 205,95" fill="#e1e1e1"/>

  <!-- Stage labels -->
  <text x="55" y="98" text-anchor="middle" font-family="Segoe UI, sans-serif" font-size="8" fill="white">Qualify</text>
  <text x="110" y="98" text-anchor="middle" font-family="Segoe UI, sans-serif" font-size="8" fill="white">Develop</text>
  <text x="165" y="98" text-anchor="middle" font-family="Segoe UI, sans-serif" font-size="8" fill="white">Propose</text>
  <text x="220" y="98" text-anchor="middle" font-family="Segoe UI, sans-serif" font-size="8" fill="#666">Close</text>

  <!-- Second sample row -->
  <rect x="20" y="120" width="260" height="60" rx="4" fill="white" stroke="#e0e0e0"/>
  <text x="30" y="140" font-family="Segoe UI, sans-serif" font-size="10" fill="#333">Fabrikam Inc - Cloud Migration</text>

  <polygon points="30,155 80,155 90,165 80,175 30,175" fill="#107C10"/>
  <polygon points="85,155 135,155 145,165 135,175 85,175 95,165" fill="#0078D4"/>
  <polygon points="140,155 190,155 200,165 190,175 140,175 150,165" fill="#e1e1e1"/>
  <polygon points="195,155 245,155 255,165 245,175 195,175 205,165" fill="#e1e1e1"/>

  <text x="55" y="168" text-anchor="middle" font-family="Segoe UI, sans-serif" font-size="8" fill="white">Qualify</text>
  <text x="110" y="168" text-anchor="middle" font-family="Segoe UI, sans-serif" font-size="8" fill="white">Develop</text>
  <text x="165" y="168" text-anchor="middle" font-family="Segoe UI, sans-serif" font-size="8" fill="#666">Propose</text>
  <text x="220" y="168" text-anchor="middle" font-family="Segoe UI, sans-serif" font-size="8" fill="#666">Close</text>
</svg>
